{"title":"Ishq 2012 Non Hindi (Telugu) BRrip 720p x264 ...Hon3y","uid":7692833,"size":949813559,"categoryP":"video","categoryS":"hd___movies","magnet":"?xt=urn:btih:3152230ef0d756741cb9802c609e0bf13cee477a&amp;dn=Ishq+2012+Non+Hindi+%28Telugu%29+BRrip+720p+x264+...Hon3y&amp;tr=udp%3A%2F%2Ftracker.openbittorrent.com%3A80&amp;tr=udp%3A%2F%2Fopen.demonii.com%3A1337&amp;tr=udp%3A%2F%2Ftracker.coppersurfer.tk%3A6969&amp;tr=udp%3A%2F%2Fexodus.desync.com%3A6969","seeders":0,"leechers":4,"uploader":"honey8ee","files":-1,"time":1349283006,"description":" &lt;a href=&quot;http://www.imdb.com/title/tt2265381/&quot; rel=&quot;nofollow&quot; target=&quot;_NEW&quot;&gt;http://www.imdb.com/title/tt2265381/&lt;/a&gt;\n\n\nFormat                                   : Matroska\nFormat version                           : Version 2\nFile size                                : 894 MiB\nDuration                                 : 2h 33mn\nOverall bit rate                         : 814 Kbps\n\nVideo\nID                                       : 1\nFormat                                   : AVC\nFormat/Info                              : Advanced Video Codec\nFormat profile                           : &lt;a class=&quot;__cf_email__&quot; href=&quot;/cdn-cgi/l/email-protection&quot; data-cfemail=&quot;fcb4959b94bcb0c8d2cd&quot;&gt;[email&amp;#160;protected]&lt;/a&gt;&lt;script cf-hash='f9e31' type=&quot;text/javascript&quot;&gt;\n/* &lt;![CDATA[ */!function(){try{var t=&quot;currentScript&quot;in document?document.currentScript:function(){for(var t=document.getElementsByTagName(&quot;script&quot;),e=t.length;e--;)if(t[e].getAttribute(&quot;cf-hash&quot;))return t[e]}();if(t&amp;&amp;t.previousSibling){var e,r,n,i,c=t.previousSibling,a=c.getAttribute(&quot;data-cfemail&quot;);if(a){for(e=&quot;&quot;,r=parseInt(a.substr(0,2),16),n=2;a.length-n;n+=2)i=parseInt(a.substr(n,2),16)^r,e+=String.fromCharCode(i);e=document.createTextNode(e),c.parentNode.replaceChild(e,c)}}}catch(u){}}();/* ]]&gt; */&lt;/script&gt;\nFormat settings, CABAC                   : Yes\nFormat settings, ReFrames                : 4 frames\nMuxing mode                              : Header stripping\nCodec ID                                 : V_MPEG4/ISO/AVC\nDuration                                 : 2h 33mn\nBit rate                                 : 750 Kbps\nWidth                                    : 1 280 pixels\nHeight                                   : 544 pixels\nDisplay aspect ratio                     : 2.35:1\nOriginal display aspect ratio            : 2.35:1\nFrame rate                               : 24.000 fps\nColor space                              : YUV\nChroma subsampling                       : 4:2:0\nBit depth                                : 8 bits\nScan type                                : Progressive\nBits/(Pixel*Frame)                       : 0.045\nStream size                              : 806 MiB (90%)\n\n\nAudio\nID                                       : 2\nFormat                                   : AC-3\nBit rate                                 : 64.0 Kbps\nChannel(s)                               : 2 channels\nChannel positions                        : Front: L R\nSampling rate                            : 48.0 KHz\nBit depth                                : 16 bits\nCompression mode                         : Lossy\nStream size                              : 70.3 MiB (8%)\nDefault                                  : Yes\nForced                                   : No\n\n &lt;a href=&quot;\nhttp://www.shotpix.com/images/45768190797651250681.png&quot; rel=&quot;nofollow&quot; target=&quot;_NEW&quot;&gt;\nhttp://www.shotpix.com/images/45768190797651250681.png&lt;/a&gt; &lt;a href=&quot;\nhttp://www.shotpix.com/images/21155015705917670696.png&quot; rel=&quot;nofollow&quot; target=&quot;_NEW&quot;&gt;\nhttp://www.shotpix.com/images/21155015705917670696.png&lt;/a&gt; &lt;a href=&quot;\nhttp://www.shotpix.com/images/14745599162098791667.png&quot; rel=&quot;nofollow&quot; target=&quot;_NEW&quot;&gt;\nhttp://www.shotpix.com/images/14745599162098791667.png&lt;/a&gt; &lt;a href=&quot;\nhttp://www.shotpix.com/images/15819467538129820214.png&quot; rel=&quot;nofollow&quot; target=&quot;_NEW&quot;&gt;\nhttp://www.shotpix.com/images/15819467538129820214.png&lt;/a&gt; &lt;a href=&quot;\nhttp://www.shotpix.com/images/78301744809033301016.png&quot; rel=&quot;nofollow&quot; target=&quot;_NEW&quot;&gt;\nhttp://www.shotpix.com/images/78301744809033301016.png&lt;/a&gt; &lt;a href=&quot;\nhttp://www.shotpix.com/images/65786207804884766485.png&quot; rel=&quot;nofollow&quot; target=&quot;_NEW&quot;&gt;\nhttp://www.shotpix.com/images/65786207804884766485.png&lt;/a&gt; &lt;a href=&quot;\nhttp://www.shotpix.com/images/44505863894258114458.png&quot; rel=&quot;nofollow&quot; target=&quot;_NEW&quot;&gt;\nhttp://www.shotpix.com/images/44505863894258114458.png&lt;/a&gt; &lt;a href=&quot;\nhttp://www.shotpix.com/images/15545955437912861941.png&quot; rel=&quot;nofollow&quot; target=&quot;_NEW&quot;&gt;\nhttp://www.shotpix.com/images/15545955437912861941.png&lt;/a&gt;\n\n\nCheeck the Sample First\n","torrent":{"xt":"urn:btih:3152230ef0d756741cb9802c609e0bf13cee477a","amp;dn":"Ishq+2012+Non+Hindi+%28Telugu%29+BRrip+720p+x264+...Hon3y","amp;tr":["udp%3A%2F%2Ftracker.openbittorrent.com%3A80","udp%3A%2F%2Fopen.demonii.com%3A1337","udp%3A%2F%2Ftracker.coppersurfer.tk%3A6969","udp%3A%2F%2Fexodus.desync.com%3A6969"],"infoHash":"3152230ef0d756741cb9802c609e0bf13cee477a","infoHashBuffer":{"type":"Buffer","data":[49,82,35,14,240,215,86,116,28,185,128,44,96,158,11,241,60,238,71,122]},"announce":[],"urlList":[]}}